<?xml version="1.0" encoding="UTF-8"?>
<svg width="28px" height="27px" viewBox="0 0 28 27" version="1.1" xmlns="http://www.w3.org/2000/svg" xmlns:xlink="http://www.w3.org/1999/xlink">
    <!-- Generator: Sketch 3.8.1 (29687) - http://www.bohemiancoding.com/sketch -->
    <title>noun_745073_cc</title>
    <desc>Created with Sketch.</desc>
    <defs></defs>
    <g id="Welcome" stroke="none" stroke-width="1" fill="none" fill-rule="evenodd">
        <g id="Desktop" transform="translate(-250.000000, -19.000000)" fill="#FFFFFF">
            <g id="noun_745073_cc" transform="translate(250.000000, 19.000000)">
                <g id="Group">
                    <g transform="translate(0.350989, 0.000000)" id="Shape">
                        <path d="M25.3348588,26.8548387 L1.61711864,26.8548387 C0.700751412,26.8548387 0,26.1566129 0,25.2435484 L0,23.0951613 C0,22.1820968 0.700751412,21.483871 1.61711864,21.483871 L25.3348588,21.483871 C26.251226,21.483871 26.9519774,22.1820968 26.9519774,23.0951613 L26.9519774,25.2435484 C26.9519774,26.1029032 26.251226,26.8548387 25.3348588,26.8548387 L25.3348588,26.8548387 Z"></path>
                        <path d="M25.3348588,16.1129032 L1.61711864,16.1129032 C0.700751412,16.1129032 0,15.4146774 0,14.5016129 L0,12.3532258 C0,11.4401613 0.700751412,10.7419355 1.61711864,10.7419355 L25.3348588,10.7419355 C26.251226,10.7419355 26.9519774,11.4401613 26.9519774,12.3532258 L26.9519774,14.5016129 C26.9519774,15.4146774 26.251226,16.1129032 25.3348588,16.1129032 L25.3348588,16.1129032 Z"></path>
                        <path d="M25.3348588,5.37096774 L1.61711864,5.37096774 C0.700751412,5.37096774 0,4.67274194 0,3.75967742 L0,1.61129032 C0,0.698225806 0.700751412,0 1.61711864,0 L25.3348588,0 C26.251226,0 26.9519774,0.698225806 26.9519774,1.61129032 L26.9519774,3.75967742 C26.9519774,4.67274194 26.251226,5.37096774 25.3348588,5.37096774 L25.3348588,5.37096774 Z"></path>
                    </g>
                </g>
            </g>
        </g>
    </g>
</svg>