<?xml version="1.0" encoding="UTF-8"?>
<svg width="30px" height="39px" viewBox="0 0 30 39" version="1.1" xmlns="http://www.w3.org/2000/svg" xmlns:xlink="http://www.w3.org/1999/xlink">
    <!-- Generator: Sketch 3.8.1 (29687) - http://www.bohemiancoding.com/sketch -->
    <title>noun_374938_cc</title>
    <desc>Created with Sketch.</desc>
    <defs></defs>
    <g id="Welcome" stroke="none" stroke-width="1" fill="none" fill-rule="evenodd">
        <g id="Desktop" transform="translate(-1153.000000, -16.000000)" stroke-width="2" stroke="#FFFFFF">
            <g id="noun_374938_cc" transform="translate(1154.000000, 17.000000)">
                <g id="Group">
                    <path d="M17.6666667,11.3860893 L9.66666667,11.3860893 L10.3333333,7.42180357 L17,7.42180357 L17.6666667,11.3860893 L17.6666667,11.3860893 Z M19,2.13608929 L8.33333333,2.13608929 L5,4.77894643 L22.3333333,4.77894643 L19,2.13608929 L19,2.13608929 Z M16.184,2.13608929 C15.8293333,1.08885714 14.842,0.329696429 13.6666667,0.329696429 C12.4913333,0.329696429 11.504,1.08885714 11.1493333,2.13608929 L16.184,2.13608929 L16.184,2.13608929 Z M13.9493333,13.7091607 L0.333333333,18.1689821 C0.333333333,31.3845893 14,36.6703036 14,36.6703036 C14,36.6703036 27.6666667,30.723875 27.6666667,18.1689821 L13.9493333,13.7091607 L13.9493333,13.7091607 Z M13.666,13.7091607 L22.326,16.4683036 C22.328,16.4438571 22.3333333,16.4207321 22.3333333,16.3962857 L19.278,5.7165 C19.278,5.19916071 18.8546667,4.77960714 18.3333333,4.77960714 L9,4.77960714 C8.47866667,4.77960714 8.05533333,5.19916071 8.05533333,5.7165 L5,16.395625 C5,16.4656607 5.00933333,16.5337143 5.024,16.5997857 L13.666,13.7091607 L13.666,13.7091607 Z M12.05,14.4855 L12.05,35.173125 L12.05,14.4855 Z M15.95,14.8654107 L15.95,35.5536964 L15.95,14.8654107 Z M1,20.6374107 L11.6666667,18.1689821 L1,20.6374107 Z M27,20.6374107 L15.95,18.1689821 L27,20.6374107 Z" id="Shape"></path>
                </g>
            </g>
        </g>
    </g>
</svg>