<?xml version="1.0" encoding="UTF-8"?>
<svg width="65px" height="65px" viewBox="0 0 65 65" version="1.1" xmlns="http://www.w3.org/2000/svg" xmlns:xlink="http://www.w3.org/1999/xlink">
    <!-- Generator: Sketch 3.8.1 (29687) - http://www.bohemiancoding.com/sketch -->
    <title>noun_981097_cc</title>
    <desc>Created with Sketch.</desc>
    <defs></defs>
    <g id="Index" stroke="none" stroke-width="1" fill="none" fill-rule="evenodd">
        <g id="Desktop-HD" transform="translate(-224.000000, -3495.000000)" fill="#000000">
            <g id="noun_981097_cc" transform="translate(224.000000, 3495.000000)">
                <g id="Group">
                    <g id="Shape">
                        <path d="M32.5,12.1 C21.3,12.1 12.1,21.2 12.1,32.5 C12.1,43.8 21.2,52.9 32.5,52.9 C43.7,52.9 52.9,43.8 52.9,32.5 C52.9,21.2 43.7,12.1 32.5,12.1 L32.5,12.1 Z M32.5,36 C30.6,36 29,34.4 29,32.5 C29,30.6 30.6,29 32.5,29 C34.4,29 36,30.6 36,32.5 C36,34.4 34.4,36 32.5,36 L32.5,36 Z M35.4,28.5 C34.8,28 34,27.7 33.2,27.6 L33.2,13.7 C37.8,13.9 42,15.7 45.2,18.7 L35.4,28.5 L35.4,28.5 Z M31.7,27.6 C30.9,27.7 30.2,28 29.5,28.5 L19.7,18.7 C22.9,15.8 27.1,13.9 31.7,13.7 L31.7,27.6 L31.7,27.6 Z M28.5,29.6 C28,30.2 27.7,31 27.6,31.8 L13.7,31.8 C13.9,27.2 15.7,23 18.7,19.8 L28.5,29.6 L28.5,29.6 Z M27.6,33.3 C27.7,34.1 28,34.8 28.5,35.5 L18.7,45.3 C15.8,42.1 13.9,37.9 13.7,33.3 L27.6,33.3 L27.6,33.3 Z M29.6,36.5 C30.2,37 31,37.3 31.8,37.4 L31.8,51.3 C27.2,51.1 23,49.3 19.8,46.3 L29.6,36.5 L29.6,36.5 Z M33.3,37.4 C34.1,37.3 34.8,37 35.5,36.5 L45.3,46.3 C42.1,49.2 37.9,51.1 33.3,51.3 L33.3,37.4 L33.3,37.4 Z M36.5,35.4 C37,34.8 37.3,34 37.4,33.2 L51.3,33.2 C51.1,37.8 49.3,42 46.3,45.2 L36.5,35.4 L36.5,35.4 Z M37.4,31.7 C37.3,30.9 37,30.2 36.5,29.5 L46.3,19.7 C49.2,22.9 51.1,27.1 51.3,31.7 L37.4,31.7 L37.4,31.7 Z"></path>
                        <path d="M65,33.3 L65,31.8 L59.2,31.8 C59,25 56.3,18.8 51.9,14.2 L56,10.1 L54.9,9 L50.8,13.1 C46.2,8.7 40,6 33.3,5.8 L33.3,0 L31.8,0 L31.8,5.8 C25,6 18.8,8.7 14.2,13.1 L10.1,9 L9,10.1 L13.1,14.2 C8.7,18.8 6,25 5.8,31.7 L0,31.7 L0,33.2 L5.8,33.2 C6,40 8.7,46.2 13.1,50.8 L9,54.9 L10.1,56 L14.2,51.9 C18.8,56.3 25,59 31.8,59.2 L31.8,65 L33.3,65 L33.3,59.2 C40.1,59 46.2,56.3 50.9,51.9 L55,56 L56.1,54.9 L52,50.8 C56.4,46.2 59.1,40 59.3,33.2 L65,33.2 L65,33.3 Z M32.5,57.7 C18.6,57.7 7.3,46.4 7.3,32.5 C7.3,18.6 18.6,7.3 32.5,7.3 C46.4,7.3 57.7,18.6 57.7,32.5 C57.7,46.4 46.4,57.7 32.5,57.7 L32.5,57.7 Z"></path>
                    </g>
                </g>
            </g>
        </g>
    </g>
</svg>